<svg display="none" xmlns="http://www.w3.org/2000/svg">
  <symbol id="linkedin" viewBox="0 0 24 24">
    <path d="M20.47 1.9999H3.53C3.33958 1.99725 3.1505 2.03214 2.97356 2.10258C2.79663 2.17302 2.6353 2.27762 2.4988 2.41041C2.36229 2.5432 2.25328 2.70158 2.17799 2.87651C2.1027 3.05143 2.06261 3.23947 2.06 3.4299V20.5699C2.06261 20.7603 2.1027 20.9484 2.17799 21.1233C2.25328 21.2982 2.36229 21.4566 2.4988 21.5894C2.6353 21.7222 2.79663 21.8268 2.97356 21.8972C3.1505 21.9676 3.33958 22.0025 3.53 21.9999H20.47C20.6604 22.0025 20.8495 21.9676 21.0264 21.8972C21.2034 21.8268 21.3647 21.7222 21.5012 21.5894C21.6377 21.4566 21.7467 21.2982 21.822 21.1233C21.8973 20.9484 21.9374 20.7603 21.94 20.5699V3.4299C21.9374 3.23947 21.8973 3.05143 21.822 2.87651C21.7467 2.70158 21.6377 2.5432 21.5012 2.41041C21.3647 2.27762 21.2034 2.17302 21.0264 2.10258C20.8495 2.03214 20.6604 1.99725 20.47 1.9999ZM8.09 18.7399H5.09V9.7399H8.09V18.7399ZM6.59 8.4799C6.17626 8.4799 5.77947 8.31554 5.48691 8.02298C5.19435 7.73043 5.03 7.33363 5.03 6.9199C5.03 6.50616 5.19435 6.10937 5.48691 5.81681C5.77947 5.52425 6.17626 5.3599 6.59 5.3599C6.80969 5.33498 7.03217 5.35675 7.24287 5.42378C7.45357 5.49081 7.64774 5.60159 7.81265 5.74886C7.97757 5.89613 8.10952 6.07657 8.19987 6.27838C8.29021 6.48018 8.33692 6.69879 8.33692 6.9199C8.33692 7.141 8.29021 7.35961 8.19987 7.56141C8.10952 7.76322 7.97757 7.94366 7.81265 8.09093C7.64774 8.23821 7.45357 8.34898 7.24287 8.41601C7.03217 8.48304 6.80969 8.50481 6.59 8.4799ZM18.91 18.7399H15.91V13.9099C15.91 12.6999 15.48 11.9099 14.39 11.9099C14.0527 11.9124 13.7242 12.0182 13.4488 12.2131C13.1735 12.408 12.9645 12.6826 12.85 12.9999C12.7717 13.2349 12.7378 13.4825 12.75 13.7299V18.7299H9.75C9.75 18.7299 9.75 10.5499 9.75 9.7299H12.75V10.9999C13.0225 10.527 13.4189 10.1374 13.8964 9.8731C14.374 9.60878 14.9146 9.47975 15.46 9.4999C17.46 9.4999 18.91 10.7899 18.91 13.5599V18.7399Z" fill="white"/>
  </symbol>
  <symbol id="instagram"  viewBox="0 0 24 24">
      <path d="M17.34 5.46C17.1027 5.46 16.8707 5.53038 16.6733 5.66224C16.476 5.79409 16.3222 5.98151 16.2313 6.20078C16.1405 6.42005 16.1168 6.66133 16.1631 6.89411C16.2094 7.12689 16.3236 7.34071 16.4915 7.50853C16.6593 7.67635 16.8731 7.79064 17.1059 7.83694C17.3387 7.88324 17.5799 7.85948 17.7992 7.76866C18.0185 7.67783 18.2059 7.52402 18.3378 7.32668C18.4696 7.12935 18.54 6.89734 18.54 6.66C18.54 6.34174 18.4136 6.03652 18.1885 5.81147C17.9635 5.58643 17.6583 5.46 17.34 5.46ZM21.94 7.88C21.9206 7.0503 21.7652 6.2294 21.48 5.45C21.2257 4.78313 20.83 4.17928 20.32 3.68C19.8248 3.16743 19.2196 2.77418 18.55 2.53C17.7727 2.23616 16.9508 2.07721 16.12 2.06C15.06 2 14.72 2 12 2C9.28 2 8.94 2 7.88 2.06C7.04915 2.07721 6.22734 2.23616 5.45 2.53C4.78168 2.77665 4.17693 3.16956 3.68 3.68C3.16743 4.17518 2.77418 4.78044 2.53 5.45C2.23616 6.22734 2.07721 7.04915 2.06 7.88C2 8.94 2 9.28 2 12C2 14.72 2 15.06 2.06 16.12C2.07721 16.9508 2.23616 17.7727 2.53 18.55C2.77418 19.2196 3.16743 19.8248 3.68 20.32C4.17693 20.8304 4.78168 21.2234 5.45 21.47C6.22734 21.7638 7.04915 21.9228 7.88 21.94C8.94 22 9.28 22 12 22C14.72 22 15.06 22 16.12 21.94C16.9508 21.9228 17.7727 21.7638 18.55 21.47C19.2196 21.2258 19.8248 20.8326 20.32 20.32C20.8322 19.8226 21.2283 19.2182 21.48 18.55C21.7652 17.7706 21.9206 16.9497 21.94 16.12C21.94 15.06 22 14.72 22 12C22 9.28 22 8.94 21.94 7.88ZM20.14 16C20.1327 16.6348 20.0178 17.2637 19.8 17.86C19.6403 18.2952 19.3839 18.6884 19.05 19.01C18.7256 19.3405 18.3332 19.5964 17.9 19.76C17.3037 19.9778 16.6748 20.0927 16.04 20.1C15.04 20.15 14.67 20.16 12.04 20.16C9.41 20.16 9.04 20.16 8.04 20.1C7.38089 20.1123 6.72459 20.0109 6.1 19.8C5.68578 19.6281 5.31136 19.3728 5 19.05C4.66809 18.7287 4.41484 18.3352 4.26 17.9C4.01586 17.2952 3.88044 16.6519 3.86 16C3.86 15 3.8 14.63 3.8 12C3.8 9.37 3.8 9 3.86 8C3.86448 7.35106 3.98295 6.70795 4.21 6.1C4.38605 5.67791 4.65627 5.30166 5 5C5.30381 4.65617 5.67929 4.3831 6.1 4.2C6.70955 3.98004 7.352 3.86508 8 3.86C9 3.86 9.37 3.8 12 3.8C14.63 3.8 15 3.8 16 3.86C16.6348 3.86728 17.2637 3.98225 17.86 4.2C18.3144 4.36865 18.7223 4.64285 19.05 5C19.3777 5.30718 19.6338 5.68273 19.8 6.1C20.0223 6.70893 20.1373 7.35178 20.14 8C20.19 9 20.2 9.37 20.2 12C20.2 14.63 20.19 15 20.14 16ZM12 6.87C10.9858 6.87198 9.99496 7.17453 9.15265 7.73942C8.31035 8.30431 7.65438 9.1062 7.26763 10.0438C6.88089 10.9813 6.78072 12.0125 6.97979 13.0069C7.17886 14.0014 7.66824 14.9145 8.38608 15.631C9.10392 16.3474 10.018 16.835 11.0129 17.0321C12.0077 17.2293 13.0387 17.1271 13.9755 16.7385C14.9123 16.35 15.7129 15.6924 16.2761 14.849C16.8394 14.0056 17.14 13.0142 17.14 12C17.1413 11.3251 17.0092 10.6566 16.7512 10.033C16.4933 9.40931 16.1146 8.84281 15.6369 8.36605C15.1592 7.88929 14.5919 7.51168 13.9678 7.25493C13.3436 6.99818 12.6749 6.86736 12 6.87ZM12 15.33C11.3414 15.33 10.6976 15.1347 10.15 14.7688C9.60234 14.4029 9.17552 13.8828 8.92348 13.2743C8.67144 12.6659 8.6055 11.9963 8.73398 11.3503C8.86247 10.7044 9.17963 10.111 9.64533 9.64533C10.111 9.17963 10.7044 8.86247 11.3503 8.73398C11.9963 8.6055 12.6659 8.67144 13.2743 8.92348C13.8828 9.17552 14.4029 9.60234 14.7688 10.15C15.1347 10.6976 15.33 11.3414 15.33 12C15.33 12.4373 15.2439 12.8703 15.0765 13.2743C14.9092 13.6784 14.6639 14.0454 14.3547 14.3547C14.0454 14.6639 13.6784 14.9092 13.2743 15.0765C12.8703 15.2439 12.4373 15.33 12 15.33Z" fill="white"/>
  </symbol>
  <symbol id="facebook"  viewBox="0 0 24 24">
     <path d="M15.12 5.32003H17V2.14003C16.0897 2.04538 15.1751 1.99865 14.26 2.00003C11.54 2.00003 9.67999 3.66003 9.67999 6.70003V9.32003H6.60999V12.88H9.67999V22H13.36V12.88H16.42L16.88 9.32003H13.36V7.05003C13.36 6.00003 13.64 5.32003 15.12 5.32003Z" fill="white"/>
  </symbol>

  <symbol id="twitter" viewBox="0 0 24 24">
   <path d="M22 5.79997C21.2483 6.12606 20.4534 6.34163 19.64 6.43997C20.4982 5.92729 21.1413 5.12075 21.45 4.16997C20.6436 4.65003 19.7608 4.98826 18.84 5.16997C18.2245 4.50254 17.405 4.05826 16.5098 3.90682C15.6147 3.75537 14.6945 3.90532 13.8938 4.33315C13.093 4.76099 12.4569 5.4425 12.0852 6.2708C11.7135 7.09911 11.6273 8.02736 11.84 8.90997C10.2094 8.82749 8.61444 8.40292 7.15865 7.66383C5.70287 6.92474 4.41885 5.88766 3.39 4.61997C3.02914 5.25013 2.83952 5.96379 2.84 6.68997C2.83872 7.36435 3.00422 8.02858 3.32176 8.62353C3.63929 9.21848 4.09902 9.72568 4.66 10.1C4.00798 10.0822 3.36989 9.90726 2.8 9.58997V9.63997C2.80489 10.5849 3.13599 11.4991 3.73731 12.2279C4.33864 12.9568 5.17326 13.4556 6.1 13.64C5.74326 13.7485 5.37287 13.8058 5 13.81C4.74189 13.807 4.48442 13.7835 4.23 13.74C4.49391 14.5528 5.00462 15.2631 5.69107 15.7721C6.37753 16.2811 7.20558 16.5635 8.06 16.58C6.6172 17.7152 4.83588 18.3348 3 18.34C2.66574 18.3411 2.33174 18.321 2 18.28C3.87443 19.4902 6.05881 20.1327 8.29 20.13C9.82969 20.146 11.3571 19.855 12.7831 19.274C14.2091 18.6931 15.505 17.8338 16.5952 16.7465C17.6854 15.6591 18.548 14.3654 19.1326 12.9409C19.7172 11.5164 20.012 9.98969 20 8.44997C20 8.27996 20 8.09997 20 7.91997C20.7847 7.33478 21.4615 6.61739 22 5.79997Z" fill="white"/>
  </symbol>

  <symbol id="youtube" viewBox="0 0 24 24">
    <path d="M23 9.70998C23.0494 8.27864 22.7364 6.858 22.09 5.57998C21.6514 5.05558 21.0427 4.70169 20.37 4.57998C17.5875 4.32751 14.7935 4.22403 12 4.26998C9.21664 4.22194 6.4327 4.32208 3.66 4.56998C3.11182 4.6697 2.60451 4.92683 2.2 5.30998C1.3 6.13998 1.2 7.55998 1.1 8.75998C0.954908 10.9175 0.954908 13.0824 1.1 15.24C1.12893 15.9154 1.22949 16.5858 1.4 17.24C1.52057 17.745 1.76452 18.2123 2.11 18.6C2.51726 19.0034 3.03638 19.2752 3.6 19.38C5.75591 19.6461 7.92821 19.7564 10.1 19.71C13.6 19.76 16.67 19.71 20.3 19.43C20.8775 19.3316 21.4112 19.0595 21.83 18.65C22.11 18.3699 22.3191 18.0271 22.44 17.65C22.7976 16.5526 22.9733 15.4041 22.96 14.25C23 13.69 23 10.31 23 9.70998ZM9.74 14.85V8.65998L15.66 11.77C14 12.69 11.81 13.73 9.74 14.85Z" fill="white"/>
  </symbol>

<symbol id="arrow" viewBox="0 0 13 21" >
 <path
  d="M2.99994 21.0002C2.73673 21.0017 2.4758 20.9512 2.23213 20.8517C1.98845 20.7522 1.76682 20.6055 1.57994 20.4202C1.39248 20.2342 1.24369 20.013 1.14216 19.7693C1.04062 19.5256 0.988342 19.2642 0.988342 19.0002C0.988342 18.7362 1.04062 18.4747 1.14216 18.231C1.24369 17.9873 1.39248 17.7661 1.57994 17.5802L8.19994 11.0002L1.83994 4.38017C1.46744 4.00545 1.25835 3.49854 1.25835 2.97017C1.25835 2.4418 1.46744 1.9349 1.83994 1.56017C2.02587 1.37272 2.24707 1.22393 2.49079 1.12239C2.7345 1.02085 2.99592 0.968576 3.25994 0.968576C3.52396 0.968576 3.78537 1.02085 4.02909 1.12239C4.27281 1.22393 4.49401 1.37272 4.67994 1.56017L12.3999 9.56017C12.7664 9.93403 12.9717 10.4367 12.9717 10.9602C12.9717 11.4837 12.7664 11.9863 12.3999 12.3602L4.39994 20.3602C4.22042 20.554 4.00427 20.7104 3.76398 20.8203C3.52368 20.9301 3.264 20.9913 2.99994 21.0002Z"
  fill="#3671E9" />
</symbol>

<symbol id="arrow-up" viewBox="0 0 14 12">
 <path
  d="M12.7103 5.28984L7.71032 0.289835C7.61521 0.198795 7.50307 0.12743 7.38032 0.0798353C7.13685 -0.0201827 6.86378 -0.0201827 6.62032 0.0798353C6.49756 0.12743 6.38542 0.198795 6.29032 0.289835L1.29032 5.28984C1.19708 5.38307 1.12312 5.49376 1.07266 5.61559C1.0222 5.73741 0.996223 5.86798 0.996223 5.99984C0.996223 6.26614 1.10201 6.52153 1.29032 6.70984C1.47862 6.89814 1.73401 7.00393 2.00032 7.00393C2.26662 7.00393 2.52201 6.89814 2.71032 6.70984L6.00032 3.40984V10.9998C6.00032 11.2651 6.10567 11.5194 6.29321 11.7069C6.48074 11.8945 6.7351 11.9998 7.00032 11.9998C7.26553 11.9998 7.51989 11.8945 7.70742 11.7069C7.89496 11.5194 8.00032 11.2651 8.00032 10.9998V3.40984L11.2903 6.70984C11.3833 6.80356 11.4939 6.87796 11.6157 6.92873C11.7376 6.9795 11.8683 7.00563 12.0003 7.00563C12.1323 7.00563 12.263 6.9795 12.3849 6.92873C12.5068 6.87796 12.6174 6.80356 12.7103 6.70984C12.804 6.61687 12.8784 6.50627 12.9292 6.38441C12.98 6.26255 13.0061 6.13185 13.0061 5.99984C13.0061 5.86782 12.98 5.73712 12.9292 5.61526C12.8784 5.4934 12.804 5.3828 12.7103 5.28984Z"
  fill="#FD8589" />
</symbol>

<symbol id="bitcoin-grey" viewBox="0 0 40 40">
 <g clip-path="url(#clip0)">
  <path
    d="M39.4018 24.8368C36.7296 35.5568 25.8685 42.0733 15.1638 39.401C4.44354 36.7288 -2.07302 25.8682 0.599319 15.1637C3.27151 4.44366 14.1168 -2.0729 24.8371 0.599443C35.5418 3.25601 42.0742 14.1166 39.4018 24.8368Z"
    fill="#E0E0E0" />
  <path
    d="M29.5231 17.5081C29.9138 14.8518 27.8981 13.4143 25.1169 12.4612L26.0231 8.85181L23.8356 8.30493L22.9606 11.8206C22.3825 11.6799 21.7888 11.5393 21.195 11.4143L22.07 7.88306L19.8825 7.33618L18.9919 10.9299C18.5075 10.8206 18.0388 10.7112 17.5856 10.6018V10.5862L14.5544 9.83618L13.9763 12.1799C13.9763 12.1799 15.6013 12.5549 15.57 12.5706C16.4606 12.7893 16.6169 13.3831 16.5856 13.8518L15.5544 17.9612C15.6169 17.9768 15.695 17.9924 15.7888 18.0393C15.7106 18.0237 15.6325 18.0081 15.5544 17.9768L14.1169 23.7268C14.0075 23.9924 13.7263 24.3987 13.1169 24.2424C13.1325 24.2737 11.5231 23.8518 11.5231 23.8518L10.4294 26.3674L13.2888 27.0862C13.82 27.2268 14.3356 27.3518 14.8513 27.4924L13.945 31.1331L16.1325 31.6799L17.0388 28.0706C17.6325 28.2268 18.2263 28.3831 18.7888 28.5237L17.8981 32.1174L20.0856 32.6643L20.9919 29.0237C24.7419 29.7268 27.5544 29.4456 28.7263 26.0549C29.6794 23.3362 28.6794 21.7581 26.7106 20.7268C28.1638 20.3987 29.2419 19.4456 29.5231 17.5081ZM24.5075 24.5393C23.8356 27.2581 19.2419 25.7893 17.7575 25.4143L18.9606 20.5862C20.445 20.9612 25.2263 21.6956 24.5075 24.5393ZM25.195 17.4612C24.57 19.9456 20.7575 18.6799 19.5231 18.3674L20.6169 13.9924C21.8513 14.3049 25.8356 14.8831 25.195 17.4612Z"
    fill="#0D0D2B" />
 </g>
 <defs>
  <clipPath id="clip0">
    <rect width="40" height="40" fill="white" />
  </clipPath>
</defs>
</symbol>

<symbol id="bitcoin"  viewBox="0 0 80 80">
 <circle cx="40" cy="40" r="40" fill="#F9AA4B" />
            <g clip-path="url(#clip0)">
              <path
                d="M78.8035 49.6732C73.4591 71.1132 51.7369 84.1463 30.3276 78.8016C8.88695 73.4573 -4.14617 51.736 1.19852 30.327C6.54289 8.88696 28.2335 -4.14617 49.6741 1.19852C71.0835 6.51164 84.1482 28.2329 78.8035 49.6732Z"
                fill="url(#paint0_linear)" />
              <path
                d="M59.0449 35.0159C59.8261 29.7034 55.7949 26.8284 50.2324 24.9222L52.0449 17.7034L47.6699 16.6097L45.9199 23.6409C44.7636 23.3597 43.5761 23.0784 42.3886 22.8284L44.1386 15.7659L39.7636 14.6722L37.9824 21.8597C37.0136 21.6409 36.0761 21.4222 35.1699 21.2034V21.1722L29.1074 19.6722L27.9511 24.3597C27.9511 24.3597 31.2011 25.1097 31.1386 25.1409C32.9199 25.5784 33.2324 26.7659 33.1699 27.7034L31.1074 35.9222C31.2324 35.9534 31.3886 35.9847 31.5761 36.0784C31.4199 36.0472 31.2636 36.0159 31.1074 35.9534L28.2324 47.4534C28.0136 47.9847 27.4511 48.7972 26.2324 48.4847C26.2636 48.5472 23.0449 47.7034 23.0449 47.7034L20.8574 52.7347L26.5761 54.1722C27.6386 54.4534 28.6699 54.7034 29.7011 54.9847L27.8886 62.2659L32.2636 63.3597L34.0761 56.1409C35.2636 56.4534 36.4511 56.7659 37.5761 57.0472L35.7949 64.2347L40.1699 65.3284L41.9824 58.0472C49.4824 59.4534 55.1074 58.8909 57.4511 52.1097C59.3574 46.6722 57.3574 43.5159 53.4199 41.4534C56.3261 40.7972 58.4824 38.8909 59.0449 35.0159ZM49.0136 49.0784C47.6699 54.5159 38.4824 51.5784 35.5136 50.8284L37.9199 41.1722C40.8886 41.9222 50.4511 43.3909 49.0136 49.0784ZM50.3886 34.9222C49.1386 39.8909 41.5136 37.3597 39.0449 36.7347L41.2324 27.9847C43.7011 28.6097 51.6699 29.7659 50.3886 34.9222Z"
                fill="white" />
            </g>
            <defs>
              <linearGradient id="paint0_linear" x1="39.9785" y1="-0.0190779" x2="39.9785" y2="79.992"
                gradientUnits="userSpaceOnUse">
                <stop stop-color="#F9AA4B" />
                <stop offset="1" stop-color="#F7931A" />
              </linearGradient>
              <clipPath id="clip0">
                <rect width="80" height="80" fill="white" />
              </clipPath>
            </defs>
</symbol>

<symbol id="chart" viewBox="0 0 80 80">
 <circle cx="40" cy="40" r="40" fill="white" fill-opacity="0.1"/>
 <path d="M54 55H27C26.4696 55 25.9609 54.7893 25.5858 54.4142C25.2107 54.0391 25 53.5304 25 53V26C25 25.7348 25.1054 25.4804 25.2929 25.2929C25.4804 25.1054 25.7348 25 26 25C26.2652 25 26.5196 25.1054 26.7071 25.2929C26.8946 25.4804 27 25.7348 27 26V53H54C54.2652 53 54.5196 53.1054 54.7071 53.2929C54.8946 53.4804 55 53.7348 55 54C55 54.2652 54.8946 54.5196 54.7071 54.7071C54.5196 54.8946 54.2652 55 54 55Z" fill="#3671E9"/>
 <path d="M33.75 51H31.25C30.6533 51 30.081 50.7629 29.659 50.341C29.2371 49.919 29 49.3467 29 48.75V39.25C29 38.6533 29.2371 38.081 29.659 37.659C30.081 37.2371 30.6533 37 31.25 37H33.75C34.3467 37 34.919 37.2371 35.341 37.659C35.7629 38.081 36 38.6533 36 39.25V48.75C36 49.3467 35.7629 49.919 35.341 50.341C34.919 50.7629 34.3467 51 33.75 51Z" fill="#3671E9"/>
 <path d="M42.75 51H40.25C39.6533 51 39.081 50.7629 38.659 50.341C38.2371 49.919 38 49.3467 38 48.75V36.25C38 35.6533 38.2371 35.081 38.659 34.659C39.081 34.2371 39.6533 34 40.25 34H42.75C43.3467 34 43.919 34.2371 44.341 34.659C44.7629 35.081 45 35.6533 45 36.25V48.75C45 49.3467 44.7629 49.919 44.341 50.341C43.919 50.7629 43.3467 51 42.75 51Z" fill="#3671E9"/>
 <path d="M51.7274 51H49.2274C48.6307 51 48.0584 50.7629 47.6364 50.341C47.2145 49.919 46.9774 49.3467 46.9774 48.75V32.25C46.9774 31.6533 47.2145 31.081 47.6364 30.659C48.0584 30.2371 48.6307 30 49.2274 30H51.7274C52.3242 30 52.8965 30.2371 53.3184 30.659C53.7404 31.081 53.9774 31.6533 53.9774 32.25V48.75C53.9774 49.3467 53.7404 49.919 53.3184 50.341C52.8965 50.7629 52.3242 51 51.7274 51Z" fill="#3671E9"/>
</symbol>

<symbol id="earth" viewBox="0 0 80 80">
 <circle opacity="0.1" cx="40" cy="40" r="40" fill="white"/>
 <path d="M52.3743 27.6364C50.7522 25.9982 48.8224 24.6967 46.6958 23.8066C44.5692 22.9166 42.2877 22.4554 39.9823 22.4498C37.6769 22.4441 35.3931 22.894 33.2621 23.7736C31.1312 24.6532 29.195 25.9452 27.5648 27.5753C25.9347 29.2055 24.6427 31.1417 23.7631 33.2727C22.8835 35.4036 22.4336 37.6874 22.4393 39.9928C22.4449 42.2982 22.9061 44.5797 23.7962 46.7063C24.6862 48.8329 25.9877 50.7627 27.6259 52.3848C29.248 54.023 31.1778 55.3245 33.3044 56.2146C35.4311 57.1047 37.7126 57.5658 40.018 57.5715C42.3233 57.5772 44.6071 57.1273 46.7381 56.2477C48.8691 55.3681 50.8052 54.0761 52.4354 52.4459C54.0655 50.8158 55.3575 48.8796 56.2371 46.7486C57.1168 44.6176 57.5667 42.3338 57.561 40.0285C57.5553 37.7231 57.0942 35.4416 56.2041 33.3149C55.314 31.1883 54.0125 29.2585 52.3743 27.6364ZM25.0001 40.0106C24.9996 38.6831 25.1756 37.3613 25.5236 36.0802C26.097 37.3145 26.9298 38.3809 27.4962 39.6473C28.2282 41.2755 30.1939 40.8239 31.0618 42.2505C31.8322 43.5169 31.0095 45.1184 31.5861 46.4434C32.0048 47.4052 32.9923 47.6153 33.6736 48.3184C34.3697 49.0278 34.3548 49.9997 34.4611 50.9247C34.581 52.0115 34.7754 53.0888 35.0431 54.1489C35.0431 54.1567 35.0431 54.1653 35.0493 54.1731C29.2032 52.12 25.0001 46.5473 25.0001 40.0106ZM40.0001 55.0106C39.1624 55.0104 38.3262 54.9403 37.5001 54.8013C37.5087 54.5895 37.5126 54.3919 37.5337 54.2544C37.7236 53.0122 38.3454 51.7973 39.1845 50.8677C40.0134 49.9505 41.1493 49.3302 41.8493 48.2895C42.5353 47.2739 42.7407 45.9067 42.4579 44.72C42.0415 42.9669 39.6595 42.3817 38.3751 41.4309C37.6368 40.8841 36.9798 40.0387 36.0103 39.97C35.5634 39.9387 35.1892 40.0348 34.7462 39.9208C34.34 39.8153 34.0212 39.5966 33.5884 39.6536C32.7798 39.7598 32.2697 40.6239 31.4009 40.5067C30.5767 40.3966 29.7275 39.4317 29.54 38.6466C29.2993 37.6372 30.0978 37.3098 30.9532 37.22C31.3103 37.1825 31.7111 37.1419 32.054 37.2731C32.5056 37.4403 32.7189 37.8825 33.1243 38.1059C33.8845 38.5231 34.0384 37.8567 33.922 37.1817C33.7478 36.1708 33.5447 35.7591 34.4462 35.063C35.0712 34.5833 35.6056 34.2364 35.5056 33.3747C35.4462 32.8684 35.1689 32.6395 35.4275 32.1356C35.6236 31.752 36.1618 31.4059 36.5126 31.177C37.4181 30.5864 40.3915 30.6302 39.1767 28.977C38.8197 28.4919 38.1611 27.6247 37.5361 27.5059C36.7548 27.3583 36.4079 28.2302 35.8634 28.6145C35.3009 29.0122 34.2056 29.4637 33.6423 28.8489C32.8845 28.0216 34.1447 27.7505 34.4236 27.1723C34.5525 26.9028 34.4236 26.5286 34.2064 26.1762C34.4881 26.0575 34.7746 25.9473 35.0657 25.8458C35.2482 25.9805 35.4647 26.0617 35.6907 26.0802C36.2134 26.1145 36.7064 25.8317 37.1626 26.188C37.6689 26.5786 38.0337 27.0723 38.7056 27.1942C39.3556 27.3122 40.0439 26.9333 40.2048 26.2677C40.3025 25.863 40.2048 25.4356 40.1111 25.0177C43.0329 25.0345 45.8855 25.9095 48.3142 27.5341C48.1579 27.4747 47.9712 27.4817 47.7407 27.5887C47.2665 27.8091 46.5947 28.37 46.5392 28.9262C46.4759 29.5575 47.4071 29.6466 47.8493 29.6466C48.5134 29.6466 49.1861 29.3497 48.972 28.5825C48.879 28.2497 48.7525 27.9036 48.5486 27.6942C49.0387 28.0343 49.5083 28.4032 49.9548 28.7989C49.9478 28.8059 49.9407 28.8122 49.9337 28.82C49.4837 29.2887 48.9611 29.6598 48.6532 30.2302C48.4361 30.6317 48.1915 30.8223 47.7517 30.9262C47.5095 30.9833 47.2329 31.0044 47.0298 31.1669C46.4642 31.6122 46.7861 32.6825 47.322 33.0036C47.9993 33.4091 49.004 33.2184 49.515 32.6395C49.9142 32.1864 50.1493 31.3997 50.8673 31.4005C51.1834 31.3998 51.487 31.5236 51.7126 31.745C52.0095 32.0528 51.9509 32.3403 52.0142 32.7247C52.1259 33.4075 52.7282 33.0372 53.0946 32.6927C53.3617 33.168 53.6027 33.6575 53.8165 34.1591C53.4134 34.7395 53.0931 35.3723 52.1236 34.6958C51.5431 34.2903 51.1861 33.702 50.4571 33.5192C49.8204 33.363 49.1681 33.5255 48.5392 33.6341C47.8243 33.7583 46.9767 33.813 46.4345 34.3544C45.9103 34.8762 45.6329 35.5747 45.0751 36.0989C43.9962 37.1145 43.5407 38.2231 44.2392 39.6591C44.9111 41.0395 46.3165 41.7887 47.8329 41.6903C49.3228 41.5911 50.8704 40.727 50.8275 42.8919C50.8118 43.6583 50.972 44.1888 51.2071 44.9005C51.4251 45.5567 51.4103 46.1927 51.4603 46.87C51.5078 47.6632 51.6318 48.4499 51.8306 49.2192C50.4303 51.0222 48.6364 52.4812 46.586 53.485C44.5357 54.4887 42.283 55.0105 40.0001 55.0106Z" fill="#3671E9"/>
</symbol>

<symbol id="ethereum" viewBox="0 0 80 80">
  <circle cx="40" cy="40" r="40" fill="#1181E8" />
  <g clip-path="url(#clip0)">
    <path
      d="M39.89 51.9385L25.1555 43.243L39.881 64.0015L54.623 43.243L39.881 51.9385H39.89ZM40.109 16L25.3805 40.4455L40.109 49.156L54.8435 40.4545L40.109 16Z"
      fill="white" />
  </g>
  <defs>
    <clipPath id="clip0">
      <rect width="48" height="48" fill="white" transform="translate(16 16)" />
    </clipPath>
  </defs>
</symbol>

<symbol id="litecoin" viewBox="0 0 80 80">
  <g clip-path="url(#clip0)">
    <circle cx="40" cy="40" r="40" fill="white" />
    <path
      d="M40 0C32.0888 0 24.3552 2.34596 17.7772 6.74121C11.1992 11.1365 6.07234 17.3836 3.04484 24.6927C0.0173314 32.0017 -0.774802 40.0444 0.768607 47.8036C2.31202 55.5628 6.12165 62.6902 11.7157 68.2843C17.3098 73.8784 24.4372 77.688 32.1964 79.2314C39.9556 80.7748 47.9983 79.9827 55.3074 76.9552C62.6164 73.9277 68.8635 68.8008 73.2588 62.2228C77.6541 55.6448 80 47.9112 80 40C80 29.3913 75.7857 19.2172 68.2843 11.7157C60.7828 4.21427 50.6087 0 40 0V0ZM39.1267 12.26H47.74C47.9162 12.2602 48.09 12.3012 48.2477 12.3796C48.4055 12.4581 48.543 12.5719 48.6495 12.7123C48.756 12.8527 48.8286 13.0158 48.8616 13.1888C48.8947 13.3619 48.8873 13.5403 48.84 13.71L42.0733 36.77L48.4234 34.83L47.0634 39.4467L40.65 41.3133L36.49 55.36H58.7433C58.9197 55.361 59.0935 55.4027 59.251 55.482C59.4086 55.5613 59.5457 55.6759 59.6515 55.817C59.7574 55.958 59.8292 56.1217 59.8613 56.2951C59.8935 56.4685 59.885 56.647 59.8367 56.8167L57.8967 63.4833C57.8038 63.8005 57.6107 64.079 57.3463 64.2773C57.082 64.4756 56.7605 64.583 56.43 64.5833H22.4433L28.1867 45.1767L21.8334 47.11L23.2333 42.5733L29.6 40.64L37.6734 13.3733C37.7619 13.0545 37.952 12.7733 38.2149 12.5723C38.4778 12.3714 38.7991 12.2617 39.13 12.26H39.1267Z"
      fill="#59C19C" />
  </g>
  <defs>
    <clipPath id="clip0">
      <rect width="80" height="80" fill="white" />
    </clipPath>
  </defs>
</symbol>

<symbol id="mastercard" viewBox="0 0 48 38">
  <path d="M17.4935 7.22754H30.4592V30.9539H17.4935V7.22754Z" fill="#BDBDBD" />
  <path
    d="M18.3167 19.091C18.3167 14.2703 20.5393 9.99445 23.9556 7.22771C21.4449 5.21562 18.2756 4 14.8181 4C6.62681 4 0 10.7489 0 19.091C0 27.4328 6.62681 34.1819 14.8179 34.1819C18.2754 34.1819 21.4447 32.9663 23.9556 30.954C20.5393 28.2293 18.3167 23.9116 18.3167 19.091Z"
    fill="#828282" />
  <path
    d="M47.9524 19.091C47.9524 27.4328 41.3256 34.1819 33.1345 34.1819C29.677 34.1819 26.5076 32.9663 23.9968 30.954C27.4543 28.1875 29.6359 23.9116 29.6359 19.091C29.6359 14.2703 27.4131 9.99445 23.9968 7.22771C26.5075 5.21562 29.677 4 33.1345 4C41.3256 4 47.9526 10.7909 47.9526 19.091H47.9524Z"
    fill="#E0E0E0" />
</symbol>

<symbol id="visa" viewBox="0 0 48 16">
  <path
    d="M34.8931 0.655137C33.7776 0.213018 32.5985 -0.00884013 31.4112 1.05892e-05C27.5718 1.05892e-05 24.8602 2.10373 24.841 5.12358C24.817 7.34214 26.7679 8.59237 28.2437 9.33363C29.7579 10.0958 30.2642 10.576 30.2594 11.2573C30.2498 12.2935 29.05 12.7633 27.9341 12.7633C26.4008 12.7633 25.5633 12.531 24.2747 11.9489L23.7972 11.7062L23.2525 15.1828C24.1859 15.6056 25.8681 15.9684 27.6054 15.9998C31.6872 15.9998 34.3556 13.9091 34.3868 10.6961C34.4204 8.92385 33.3645 7.58488 31.1425 6.47821C29.7915 5.76044 28.954 5.28019 28.954 4.55198C28.954 3.90729 29.6715 3.21823 31.1713 3.21823C32.1694 3.19196 33.1614 3.39566 34.082 3.81594L34.442 3.99081L34.9867 0.631647L34.8931 0.655137ZM44.8564 0.281898H41.8569C40.9234 0.281898 40.2203 0.561176 39.8124 1.56866L34.0436 15.7831H38.1254L38.9413 13.4523L43.923 13.4575C44.0405 14.003 44.4005 15.7831 44.4005 15.7831H47.9999L44.8564 0.281898ZM19.3194 0.151394H23.2093L20.776 15.6604H16.891L19.3194 0.146174V0.151394ZM9.44492 8.69938L9.84806 10.8527L13.6491 0.281898H17.7693L11.6478 15.7622H7.53721L4.17771 2.65445C4.1233 2.43832 3.99552 2.25269 3.82017 2.13505C2.60931 1.4547 1.32633 0.938403 -6.10352e-05 0.597715L0.0527309 0.271456H6.31339C7.16286 0.307997 7.84676 0.597716 8.07473 1.58432L9.44252 8.70721V8.69938H9.44492ZM40.0571 10.2811L41.6073 5.94314C41.5881 5.99013 41.9265 5.04789 42.1232 4.46584L42.3896 5.80481L43.2894 10.2785H40.0547V10.2811H40.0571Z"
    fill="#E0E0E0" />
</symbol>

<symbol id="person" viewBox="0 0 80 80">
  <circle opacity="0.1" cx="40" cy="40" r="40" fill="white"/>
 <path d="M45.9875 25.0453C44.4672 23.4039 42.3438 22.5 40 22.5C37.6438 22.5 35.5133 23.3984 34 25.0297C32.4703 26.6789 31.725 28.9203 31.9 31.3406C32.2469 36.1156 35.8805 40 40 40C44.1195 40 47.7469 36.1164 48.0992 31.3422C48.2766 28.9437 47.5266 26.707 45.9875 25.0453Z" fill="#3671E9"/>
 <path d="M53.7499 57.5H26.2499C25.8899 57.5047 25.5335 57.4291 25.2064 57.2786C24.8794 57.1282 24.59 56.9068 24.3593 56.6305C23.8515 56.0234 23.6468 55.1945 23.7983 54.3562C24.4577 50.6984 26.5155 47.6258 29.7499 45.4687C32.6233 43.5539 36.2632 42.5 39.9999 42.5C43.7366 42.5 47.3765 43.5547 50.2499 45.4687C53.4843 47.625 55.5421 50.6977 56.2015 54.3555C56.353 55.1937 56.1483 56.0227 55.6405 56.6297C55.4099 56.9062 55.1205 57.1277 54.7935 57.2783C54.4664 57.4288 54.1099 57.5046 53.7499 57.5Z" fill="#3671E9"/>
</symbol>

<symbol id="profit-arrow" viewBox="0 0 16 16">
              <circle opacity="0.1" cx="8.00009" cy="8.00024" r="8" fill="#8FFFBE" />
              <path
                d="M11.3877 9.72888L8.18068 6.01013C8.08888 5.90369 7.91213 5.90369 7.81935 6.01013L4.61232 9.72888C4.49318 9.86755 4.6006 10.0707 4.79299 10.0707H11.207C11.3994 10.0707 11.5069 9.86755 11.3877 9.72888Z"
                fill="#8FFFBE" />
            </symbol>
<symbol id="loss-arrow" viewBox="0 0 16 16">
              <circle opacity="0.1" cx="7.99994" cy="8.00012" r="8" fill="#FF7676" />
              <path
                d="M11.2069 5.92981H4.79283C4.60045 5.92981 4.49303 6.13293 4.61217 6.27161L7.8192 9.99036C7.911 10.0968 8.08776 10.0968 8.18053 9.99036L11.3876 6.27161C11.5067 6.13293 11.3993 5.92981 11.2069 5.92981Z"
                fill="#FF7676" />
            </symbol>
</svg>

